<?xml version="1.0" encoding="UTF-8" standalone="no"?>
<!-- Created with Inkscape (http://www.inkscape.org/) -->

<svg
   xmlns:dc="http://purl.org/dc/elements/1.1/"
   xmlns:cc="http://creativecommons.org/ns#"
   xmlns:rdf="http://www.w3.org/1999/02/22-rdf-syntax-ns#"
   xmlns:svg="http://www.w3.org/2000/svg"
   xmlns="http://www.w3.org/2000/svg"
   xmlns:sodipodi="http://sodipodi.sourceforge.net/DTD/sodipodi-0.dtd"
   xmlns:inkscape="http://www.inkscape.org/namespaces/inkscape"
   width="43.676235mm"
   height="47.666756mm"
   viewBox="0 0 43.676235 47.666756"
   version="1.1"
   id="svg8"
   inkscape:version="0.92.2 (5c3e80d, 2017-08-06)"
   sodipodi:docname="robot1.svg">
  <defs
     id="defs2">
    <inkscape:path-effect
       effect="skeletal"
       id="path-effect4626"
       is_visible="true"
       pattern="M 0.572575,0 C 0.257977,0 0,0.26004 0,0.57464 v 2.25981 c 0,0.3145999 0.257977,0.57413 0.572575,0.57413 h 17.81235 c 0.314595,0 0.572058,-0.2595301 0.572058,-0.57413 V 0.57464 C 18.956983,0.26004 18.69952,0 18.384925,0 Z m 0,0.35398001 H 2.376599 V 3.0551101 H 0.572575 c -0.12514,0 -0.21910699,-0.0956 -0.21910699,-0.2206601 V 0.57464 c 0,-0.12513998 0.09397,-0.22065999 0.21910699,-0.22065999 z m 2.067573,0 H 4.699971 V 3.0551101 H 2.640148 Z m 2.3233721,0 H 7.0233439 V 3.0551101 H 4.9635201 Z m 2.3233719,0 H 9.3467161 V 3.0551101 H 7.286892 Z m 2.3233732,0 H 11.670088 V 3.0551101 H 9.6102652 Z m 2.3233718,0 h 2.059824 V 3.0551101 h -2.059824 z m 2.323373,0 h 2.059823 V 3.0551101 H 14.25701 Z m 2.323372,0 h 1.804543 c 0.12514,0 0.220657,0.0956 0.220657,0.22065999 v 2.25981 c 0,0.12514 -0.09551,0.2206601 -0.220657,0.2206601 h -1.804543 z"
       copytype="single_stretched"
       prop_scale="1"
       scale_y_rel="false"
       spacing="0"
       normal_offset="0"
       tang_offset="0"
       prop_units="false"
       vertical_pattern="false"
       fuse_tolerance="0" />
    <inkscape:path-effect
       effect="skeletal"
       id="path-effect4240"
       is_visible="true"
       pattern="M 1.4796774,2.5609153 1.2889126,2.565572 1.1565081,3.0632162 v 0.00265 l 0.4578264,0.00362 z M 1.1565078,3.0632109 1.080211,2.5676331 0.77500107,2.5764173 0.96575444,3.0632109 Z M 0.35756362,2.5738349 0.41145395,3.0812978 H 0.60221879 L 0.77502404,2.583135 Z"
       copytype="repeated_stretched"
       prop_scale="1.05"
       scale_y_rel="false"
       spacing="0.1"
       normal_offset="-0.1"
       tang_offset="-0.1"
       prop_units="false"
       vertical_pattern="false"
       fuse_tolerance="0"
       pattern-nodetypes="cccccccccccccccc" />
    <inkscape:path-effect
       effect="skeletal"
       id="path-effect4240-7"
       is_visible="true"
       pattern="m -25.165305,-206.53861 -0.190765,0.005 -0.132404,0.49765 v 0.003 l 0.457826,0.004 z m -0.323169,0.5023 -0.0763,-0.49558 -0.30521,0.009 0.190753,0.48679 z m -0.798945,-0.48938 0.05389,0.50747 h 0.190765 l 0.172805,-0.49817 z"
       copytype="repeated_stretched"
       prop_scale="1.05"
       scale_y_rel="false"
       spacing="0.1"
       normal_offset="0.2"
       tang_offset="-0.1"
       prop_units="false"
       vertical_pattern="false"
       fuse_tolerance="0"
       pattern-nodetypes="cccccccccccccccc" />
    <inkscape:path-effect
       effect="skeletal"
       id="path-effect4240-7-6"
       is_visible="true"
       pattern="m -68.691486,-387.2539 -0.190765,0.005 -0.132404,0.49765 v 0.003 l 0.457826,0.004 z m -0.323169,0.5023 -0.0763,-0.49558 -0.30521,0.009 0.190753,0.48679 z m -0.798945,-0.48938 0.05389,0.50747 h 0.190765 l 0.172805,-0.49817 z"
       copytype="repeated_stretched"
       prop_scale="2.4739453"
       scale_y_rel="false"
       spacing="0.1"
       normal_offset="0.2"
       tang_offset="-0.1"
       prop_units="false"
       vertical_pattern="false"
       fuse_tolerance="0"
       pattern-nodetypes="cccccccccccccccc" />
    <inkscape:path-effect
       effect="skeletal"
       id="path-effect4626-3"
       is_visible="true"
       pattern="m -45.487677,-185.63739 c -0.314598,0 -0.572575,0.26004 -0.572575,0.57464 v 2.25981 c 0,0.3146 0.257977,0.57413 0.572575,0.57413 h 17.81235 c 0.314595,0 0.572058,-0.25953 0.572058,-0.57413 v -2.25981 c 0,-0.3146 -0.257463,-0.57464 -0.572058,-0.57464 z m 0,0.35398 h 1.804024 v 2.70113 h -1.804024 c -0.12514,0 -0.219107,-0.0956 -0.219107,-0.22066 v -2.25981 c 0,-0.12514 0.09397,-0.22066 0.219107,-0.22066 z m 2.067573,0 h 2.059823 v 2.70113 h -2.059823 z m 2.323373,0 h 2.059823 v 2.70113 h -2.059823 z m 2.323371,0 h 2.059825 v 2.70113 h -2.059825 z m 2.323374,0 h 2.059822 v 2.70113 h -2.059822 z m 2.323371,0 h 2.059824 v 2.70113 h -2.059824 z m 2.323373,0 h 2.059823 v 2.70113 h -2.059823 z m 2.323372,0 h 1.804543 c 0.12514,0 0.220657,0.0956 0.220657,0.22066 v 2.25981 c 0,0.12514 -0.09551,0.22066 -0.220657,0.22066 h -1.804543 z"
       copytype="single_stretched"
       prop_scale="1"
       scale_y_rel="false"
       spacing="0"
       normal_offset="0"
       tang_offset="0"
       prop_units="false"
       vertical_pattern="false"
       fuse_tolerance="0" />
  </defs>
  <sodipodi:namedview
     id="base"
     pagecolor="#ffffff"
     bordercolor="#666666"
     borderopacity="1.0"
     inkscape:pageopacity="0.0"
     inkscape:pageshadow="2"
     inkscape:zoom="2.8284271"
     inkscape:cx="116.61322"
     inkscape:cy="115.22736"
     inkscape:document-units="mm"
     inkscape:current-layer="layer1"
     showgrid="false"
     inkscape:snap-bbox="true"
     inkscape:snap-bbox-edge-midpoints="true"
     inkscape:bbox-nodes="true"
     inkscape:bbox-paths="true"
     inkscape:snap-bbox-midpoints="false"
     inkscape:snap-midpoints="true"
     inkscape:snap-intersection-paths="true"
     inkscape:object-paths="true"
     showguides="true"
     inkscape:guide-bbox="true"
     inkscape:window-width="1920"
     inkscape:window-height="1017"
     inkscape:window-x="1912"
     inkscape:window-y="-8"
     inkscape:window-maximized="1"
     inkscape:measure-start="0,0"
     inkscape:measure-end="0,0"
     fit-margin-top="5"
     fit-margin-left="5"
     fit-margin-right="5"
     fit-margin-bottom="5">
    <sodipodi:guide
       position="21.837988,-23.238617"
       orientation="0,1"
       id="guide3883"
       inkscape:locked="false" />
    <sodipodi:guide
       position="5.0000004,-23.238607"
       orientation="1,0"
       id="guide3885"
       inkscape:locked="false" />
    <sodipodi:guide
       position="38.675977,-23.238607"
       orientation="1,0"
       id="guide3887"
       inkscape:locked="false" />
    <sodipodi:guide
       position="21.83773,23.100674"
       orientation="1,0"
       id="guide3905"
       inkscape:locked="false" />
    <sodipodi:guide
       position="5.0000004,23.100674"
       orientation="0,1"
       id="guide3907"
       inkscape:locked="false" />
    <sodipodi:guide
       position="-9.5151367,36.358773"
       orientation="1,0"
       id="guide3909"
       inkscape:locked="false" />
    <sodipodi:guide
       position="5.0000004,39.938403"
       orientation="0.70710678,0.70710678"
       id="guide3913"
       inkscape:locked="false" />
    <sodipodi:guide
       position="21.838248,39.938403"
       orientation="0,1"
       id="guide3915"
       inkscape:locked="false" />
    <sodipodi:guide
       position="21.837731,23.100684"
       orientation="-0.8660254,0.5"
       id="guide3917"
       inkscape:locked="false"
       inkscape:label=""
       inkscape:color="rgb(255,0,68)" />
    <sodipodi:guide
       position="21.837731,23.100684"
       orientation="-0.70710678,0.70710678"
       id="guide3921"
       inkscape:locked="false" />
    <sodipodi:guide
       position="13.419157,37.682643"
       orientation="0,1"
       id="guide3925"
       inkscape:locked="false" />
    <sodipodi:guide
       position="20.687545,36.234813"
       orientation="0,1"
       id="guide3929"
       inkscape:locked="false" />
    <sodipodi:guide
       position="7.3333093,8.5962641"
       orientation="0,1"
       id="guide3934"
       inkscape:locked="false" />
    <sodipodi:guide
       position="5.0000004,6.2629531"
       orientation="0,1"
       id="guide3936"
       inkscape:locked="false" />
    <sodipodi:guide
       position="5.0000004,8.5962641"
       orientation="0.70710678,0.70710678"
       id="guide3938"
       inkscape:locked="false" />
    <sodipodi:guide
       position="6.1666573,7.4296231"
       orientation="1,0"
       id="guide3940"
       inkscape:locked="false" />
    <sodipodi:guide
       position="6.1666583,8.5962741"
       orientation="0.70710678,0.70710678"
       id="guide3942"
       inkscape:locked="false" />
    <sodipodi:guide
       position="38.675978,8.5962741"
       orientation="-0.70710678,0.70710678"
       id="guide3944"
       inkscape:locked="false" />
    <sodipodi:guide
       position="37.509054,7.4293631"
       orientation="1,0"
       id="guide3946"
       inkscape:locked="false" />
    <sodipodi:guide
       position="48.164029,26.106184"
       orientation="0.70710678,0.70710678"
       id="guide3948"
       inkscape:locked="false" />
    <sodipodi:guide
       position="37.509055,8.5962741"
       orientation="-0.70710678,0.70710678"
       id="guide3950"
       inkscape:locked="false" />
    <sodipodi:guide
       position="32.487467,21.112154"
       orientation="0,1"
       id="guide4595"
       inkscape:locked="false" />
  </sodipodi:namedview>
  <metadata
     id="metadata5">
    <rdf:RDF>
      <cc:Work
         rdf:about="">
        <dc:format>image/svg+xml</dc:format>
        <dc:type
           rdf:resource="http://purl.org/dc/dcmitype/StillImage" />
        <dc:title></dc:title>
      </cc:Work>
    </rdf:RDF>
  </metadata>
  <g
     inkscape:label="Layer 1"
     inkscape:groupmode="layer"
     id="layer1"
     transform="translate(58.15205,218.07465)">
    <g
       id="g4691"
       inkscape:export-xdpi="753.90625"
       inkscape:export-ydpi="753.90625">
      <path
         inkscape:connector-curvature="0"
         id="path4044"
         d="m -44.71956,-208.06706 8.391536,1.42437 8.40223,-1.39523 0.326445,2.69339 -10.566796,0.44649 -6.647657,-0.59532 z"
         style="fill:#3c1b42;fill-opacity:1;stroke:none;stroke-width:0.26458332px;stroke-linecap:butt;stroke-linejoin:miter;stroke-opacity:1" />
      <circle
         r="7.1581078"
         cy="-205.90678"
         cx="-36.31432"
         id="path3923"
         style="opacity:1;vector-effect:none;fill:#773783;fill-opacity:1;stroke:none;stroke-width:0.53401613;stroke-linecap:butt;stroke-linejoin:miter;stroke-miterlimit:4;stroke-dasharray:none;stroke-dashoffset:0;stroke-opacity:1" />
      <path
         inkscape:connector-curvature="0"
         id="path3923-7"
         transform="scale(0.26458333)"
         d="m -163.67773,-783.94727 a 27.054266,27.054266 0 0 0 -0.62696,5.7168 27.054266,27.054266 0 0 0 27.05469,27.05469 27.054266,27.054266 0 0 0 27.05273,-27.05469 27.054266,27.054266 0 0 0 -0.64257,-5.71094 32.793461,7.1594563 0 0 1 -26.41016,2.92969 32.793461,7.1594563 0 0 1 -26.42773,-2.93555 z"
         style="opacity:1;vector-effect:none;fill:#592962;fill-opacity:1;stroke:none;stroke-width:2.01832867;stroke-linecap:butt;stroke-linejoin:miter;stroke-miterlimit:4;stroke-dasharray:none;stroke-dashoffset:0;stroke-opacity:1" />
      <path
         sodipodi:nodetypes="ccccccccc"
         inkscape:connector-curvature="0"
         id="path3870-7"
         transform="scale(0.26458333)"
         d="m -169.04102,-786.43359 c -19.68511,11.35193 -31.82369,32.33874 -31.84765,55.0625 v 54.81993 h 127.279295 v -54.81993 c -0.03305,-22.7203 -12.176385,-43.69962 -31.861325,-55.04493 l -3.1211,5.4043 h -57.31836 z"
         style="opacity:1;vector-effect:none;fill:#b066be;fill-opacity:1;stroke:none;stroke-width:0.99999994;stroke-linecap:butt;stroke-linejoin:miter;stroke-miterlimit:4;stroke-dasharray:none;stroke-dashoffset:0;stroke-opacity:1" />
      <path
         inkscape:connector-curvature="0"
         id="path3870-7-1"
         transform="scale(0.26458333)"
         d="m -169.04102,-786.43359 c -19.68511,11.35192 -31.82369,32.33873 -31.84765,55.0625 v 54.82031 h 24.35351 a 77.534576,99.3898 0 0 1 -1.50781,-19.06836 77.534576,99.3898 0 0 1 38.0332,-85.39258 h -25.90039 z"
         style="opacity:1;vector-effect:none;fill:#bb7bc7;fill-opacity:1;stroke:none;stroke-width:0.99999994;stroke-linecap:butt;stroke-linejoin:miter;stroke-miterlimit:4;stroke-dasharray:none;stroke-dashoffset:0;stroke-opacity:1" />
      <path
         sodipodi:nodetypes="cccccc"
         id="path3974-8"
         d="m -48.378483,-205.57273 c -2.545201,5e-5 -3.010511,0.71091 -3.010565,3.25611 0.0021,0.79838 -0.454878,1.44219 -0.05854,2.13525 2.157546,-0.27364 5.410129,-3.01124 5.02038,-6.46134 -0.411348,-0.11871 -0.731993,0.10459 -1.160124,0.10343 z"
         style="opacity:1;vector-effect:none;fill:#74377f;fill-opacity:1;stroke:none;stroke-width:0.31252599;stroke-linecap:butt;stroke-linejoin:miter;stroke-miterlimit:4;stroke-dasharray:none;stroke-dashoffset:0;stroke-opacity:1"
         inkscape:connector-curvature="0" />
      <path
         sodipodi:nodetypes="ccccc"
         inkscape:connector-curvature="0"
         id="path3952"
         d="m -51.985391,-179.00416 1.166651,3.59616 h 29.00935 l 1.166386,-3.59616 z"
         style="fill:#773783;fill-opacity:1;stroke:none;stroke-width:0.26458332px;stroke-linecap:butt;stroke-linejoin:miter;stroke-opacity:1" />
      <path
         sodipodi:nodetypes="ccccc"
         inkscape:connector-curvature="0"
         id="path3952-9"
         transform="scale(0.26458333)"
         d="m -200.88964,-676.55116 4.40941,4.4094 118.459461,9.9e-4 4.410417,-4.41039 z"
         style="fill:#663070;fill-opacity:1;stroke:none;stroke-width:0.99999994px;stroke-linecap:butt;stroke-linejoin:miter;stroke-opacity:1" />
      <path
         inkscape:connector-curvature="0"
         id="path3974"
         transform="scale(0.26458333)"
         d="m -181.73438,-781.01172 a 14.746383,14.746383 0 0 0 -14.74609,14.7461 14.746383,14.746383 0 0 0 1.94531,7.28124 c 6.90358,-0.87562 18.09667,-10.40982 16.84961,-21.44921 a 14.746383,14.746383 0 0 0 -4.04883,-0.57813 z"
         style="opacity:1;vector-effect:none;fill:#b36bc0;fill-opacity:1;stroke:none;stroke-width:0.99999994;stroke-linecap:butt;stroke-linejoin:miter;stroke-miterlimit:4;stroke-dasharray:none;stroke-dashoffset:0;stroke-opacity:1" />
      <path
         sodipodi:nodetypes="cccccc"
         id="path3974-8-3"
         d="m -24.292862,-205.66246 c 2.545201,5e-5 3.010511,0.71091 3.010565,3.25611 -0.0021,0.79838 0.454878,1.44219 0.05854,2.13525 -2.157546,-0.27364 -5.410129,-3.01124 -5.02038,-6.46134 0.411348,-0.11871 0.731993,0.10459 1.160124,0.10343 z"
         style="opacity:1;vector-effect:none;fill:#70357b;fill-opacity:1;stroke:none;stroke-width:0.31252599;stroke-linecap:butt;stroke-linejoin:miter;stroke-miterlimit:4;stroke-dasharray:none;stroke-dashoffset:0;stroke-opacity:1"
         inkscape:connector-curvature="0" />
      <path
         id="path3974-3"
         d="m -24.544565,-206.64268 a 3.9016472,3.9016472 0 0 1 3.90157,3.90157 3.9016472,3.9016472 0 0 1 -0.514697,1.92649 c -1.826572,-0.23167 -4.788077,-2.75426 -4.458126,-5.6751 a 3.9016472,3.9016472 0 0 1 1.071253,-0.15296 z"
         style="opacity:1;vector-effect:none;fill:#b36bc0;fill-opacity:1;stroke:none;stroke-width:0.26458332;stroke-linecap:butt;stroke-linejoin:miter;stroke-miterlimit:4;stroke-dasharray:none;stroke-dashoffset:0;stroke-opacity:1"
         inkscape:connector-curvature="0" />
      <path
         inkscape:connector-curvature="0"
         id="path3974-9"
         transform="scale(0.26458333)"
         d="m -191.31055,-777.47266 a 14.746383,14.746383 0 0 0 -5.16992,11.20704 14.746383,14.746383 0 0 0 1.94531,7.28124 c 1.51748,-0.19246 3.24374,-0.82414 4.99805,-1.77734 a 10.407728,12.31742 0 0 1 -3.76758,-9.47851 10.407728,12.31742 0 0 1 1.99414,-7.23243 z"
         style="opacity:1;vector-effect:none;fill:#ffffff;fill-opacity:0.26086958;stroke:none;stroke-width:0.99999994;stroke-linecap:butt;stroke-linejoin:miter;stroke-miterlimit:4;stroke-dasharray:none;stroke-dashoffset:0;stroke-opacity:1" />
      <path
         inkscape:connector-curvature="0"
         id="path3974-3-7"
         transform="scale(0.26458333)"
         d="m -92.767578,-781.01172 a 14.746383,14.746383 0 0 0 -4.048828,0.57813 c -0.594276,5.26073 1.649155,10.16578 4.894531,13.96875 a 7.6275025,13.267243 0 0 0 5.046875,-12.47071 7.6275025,13.267243 0 0 0 -0.01758,-0.84961 14.746383,14.746383 0 0 0 -5.875,-1.22656 z"
         style="opacity:1;vector-effect:none;fill:#c287cc;fill-opacity:1;stroke:none;stroke-width:0.99999994;stroke-linecap:butt;stroke-linejoin:miter;stroke-miterlimit:4;stroke-dasharray:none;stroke-dashoffset:0;stroke-opacity:1" />
      <path
         inkscape:connector-curvature="0"
         id="path4101"
         transform="scale(0.26458333)"
         d="m -137.25,-760.08203 a 28.71008,28.71008 0 0 0 -28.71094,28.71094 28.71008,28.71008 0 0 0 14.36133,24.83789 20.843793,10.421897 0 0 1 14.34961,-2.86914 20.843793,10.421897 0 0 1 14.32617,2.86914 28.71008,28.71008 0 0 0 14.38281,-24.83789 28.71008,28.71008 0 0 0 -28.70898,-28.71094 z"
         style="opacity:1;vector-effect:none;fill:#bcee87;fill-opacity:1;stroke:none;stroke-width:2.89133859;stroke-linecap:butt;stroke-linejoin:miter;stroke-miterlimit:4;stroke-dasharray:none;stroke-dashoffset:0;stroke-opacity:1" />
      <path
         inkscape:connector-curvature="0"
         id="path4101-8"
         transform="scale(0.26458333)"
         d="m -134.75,-731.37109 a 47.249999,16.82033 0 0 0 -30.875,4.11523 28.71008,28.71008 0 0 0 14.02539,20.72266 20.843793,10.421897 0 0 1 14.34961,-2.86914 20.843793,10.421897 0 0 1 14.32617,2.86914 28.71008,28.71008 0 0 0 14.20703,-22.04102 47.249999,16.82033 0 0 0 -26.0332,-2.79687 z"
         style="opacity:1;vector-effect:none;fill:#ececec;fill-opacity:0.57826089;stroke:none;stroke-width:2.89133859;stroke-linecap:butt;stroke-linejoin:miter;stroke-miterlimit:4;stroke-dasharray:none;stroke-dashoffset:0;stroke-opacity:1" />
      <path
         inkscape:connector-curvature="0"
         id="path4107"
         transform="scale(0.26458333)"
         d="m -137.25,-717.26562 a 20.357313,20.357313 0 0 0 -16.91797,9.05273 28.71008,28.71008 0 0 0 2.58008,1.67383 20.843793,10.421897 0 0 1 14.33789,-2.86328 20.843793,10.421897 0 0 1 14.30664,2.86132 28.71008,28.71008 0 0 0 2.60352,-1.67187 20.357313,20.357313 0 0 0 -16.91016,-9.05273 z"
         style="opacity:1;vector-effect:none;fill:#3d1c43;fill-opacity:1;stroke:#3d1c43;stroke-width:2.89133859;stroke-linecap:butt;stroke-linejoin:miter;stroke-miterlimit:4;stroke-dasharray:none;stroke-dashoffset:0;stroke-opacity:1" />
      <path
         inkscape:connector-curvature="0"
         id="path4174-2"
         d="m -36.380532,-213.07465 a 7.1581078,7.1581078 0 0 0 -6.306076,3.8871 5.1587653,3.5079125 0 0 0 1.201994,0.10077 5.1587653,3.5079125 0 0 0 5.158343,-3.5078 5.1587653,3.5079125 0 0 0 -0.05426,-0.48007 z"
         style="opacity:0.39300005;vector-effect:none;fill:#c187cd;fill-opacity:1;stroke:none;stroke-width:0.76499999;stroke-linecap:butt;stroke-linejoin:miter;stroke-miterlimit:4;stroke-dasharray:none;stroke-dashoffset:0;stroke-opacity:1" />
      <circle
         r="2.4877768"
         cy="-193.50856"
         cx="-36.314327"
         id="path4103"
         style="opacity:1;vector-effect:none;fill:#000000;fill-opacity:1;stroke:none;stroke-width:0.21587898;stroke-linecap:butt;stroke-linejoin:miter;stroke-miterlimit:4;stroke-dasharray:none;stroke-dashoffset:0;stroke-opacity:1" />
      <circle
         r="2.155998"
         cy="-195.66457"
         cx="-38.803814"
         id="path4172"
         style="opacity:0.77700034;vector-effect:none;fill:#edfade;fill-opacity:1;stroke:none;stroke-width:0.76500142;stroke-linecap:butt;stroke-linejoin:miter;stroke-miterlimit:4;stroke-dasharray:none;stroke-dashoffset:0;stroke-opacity:1" />
      <path
         inkscape:connector-curvature="0"
         id="path4101-4"
         d="m -36.314453,-201.48828 c -4.402172,-1.3e-4 -7.978644,3.5783 -7.978516,7.98047 0.0029,2.84771 1.523681,5.47911 3.990235,6.90234 l 0.175781,0.0996 0.179687,-0.0859 c 0.955594,-0.4543 2.268415,-0.72222 3.632813,-0.72265 1.362328,0.001 2.67281,0.26904 3.626953,0.72265 l 0.181641,0.0859 0.173828,-0.0996 c 2.468849,-1.42171 3.991949,-4.0534 3.996093,-6.90234 1.29e-4,-4.40196 -3.576555,-7.9803 -7.978515,-7.98047 z m 0,0.76562 c 3.98786,1.6e-4 7.21193,3.22529 7.212891,7.21289 -0.0037,2.54168 -1.361653,4.87223 -3.541016,6.16993 -1.053363,-0.44925 -2.316322,-0.7371 -3.671875,-0.73828 -1.357761,4.2e-4 -2.622661,0.28831 -3.677735,0.73828 -2.176731,-1.29868 -3.531873,-3.62816 -3.535156,-6.16797 v -0.002 c 9.61e-4,-3.98779 3.224838,-7.21301 7.212891,-7.21289 z"
         style="color:#000000;font-style:normal;font-variant:normal;font-weight:normal;font-stretch:normal;font-size:medium;line-height:normal;font-family:sans-serif;font-variant-ligatures:normal;font-variant-position:normal;font-variant-caps:normal;font-variant-numeric:normal;font-variant-alternates:normal;font-feature-settings:normal;text-indent:0;text-align:start;text-decoration:none;text-decoration-line:none;text-decoration-style:solid;text-decoration-color:#000000;letter-spacing:normal;word-spacing:normal;text-transform:none;writing-mode:lr-tb;direction:ltr;text-orientation:mixed;dominant-baseline:auto;baseline-shift:baseline;text-anchor:start;white-space:normal;shape-padding:0;clip-rule:nonzero;display:inline;overflow:visible;visibility:visible;opacity:1;isolation:auto;mix-blend-mode:normal;color-interpolation:sRGB;color-interpolation-filters:linearRGB;solid-color:#000000;solid-opacity:1;vector-effect:none;fill:#3d1c43;fill-opacity:1;fill-rule:nonzero;stroke:none;stroke-width:0.76499999;stroke-linecap:butt;stroke-linejoin:miter;stroke-miterlimit:4;stroke-dasharray:none;stroke-dashoffset:0;stroke-opacity:1;color-rendering:auto;image-rendering:auto;shape-rendering:auto;text-rendering:auto;enable-background:accumulate" />
      <g
         transform="translate(-0.07847991)"
         id="g4475">
        <path
           inkscape:connector-curvature="0"
           id="rect4421"
           transform="matrix(0.26458333,0,0,0.26458333,0.07847991,0)"
           d="m -187.48047,-672.14062 v 9.18164 h 4.81445 v -9.18164 z m 15.94141,0 v 9.18164 h 4.81445 v -9.18164 z m 15.9414,0 v 9.18164 h 4.81446 v -9.18164 z m 15.93946,0 v 9.18164 h 4.81445 v -9.18164 z m 15.9414,0 v 9.18164 h 4.81446 v -9.18164 z m 15.94141,0 v 9.18164 h 4.8125 v -9.18164 z m 15.939452,0 v 9.18164 h 4.814454 v -9.18164 z"
           style="opacity:1;vector-effect:none;fill:#663070;fill-opacity:1;stroke:none;stroke-width:2.89133859;stroke-linecap:butt;stroke-linejoin:miter;stroke-miterlimit:4;stroke-dasharray:none;stroke-dashoffset:0;stroke-opacity:1" />
      </g>
      <path
         sodipodi:nodetypes="ccccccccccc"
         id="path4597-4-4"
         d="m -44.709416,-185.63618 c -0.212548,0.0149 -0.415216,0.15616 -0.500227,0.3762 l -0.814422,2.1084 c -0.113368,0.29344 0.04817,0.63469 0.368454,0.75035 5.9924,2.16385 12.707082,2.26373 18.714103,-0.002 0.321442,-0.12125 0.478041,-0.46586 0.358635,-0.75706 l -0.857314,-2.09083 c -0.119388,-0.29116 -0.442859,-0.43787 -0.713134,-0.33383 -5.160034,1.98626 -11.084409,1.87879 -16.344222,-0.0217 -0.06899,-0.0249 -0.141023,-0.0344 -0.211873,-0.0294 z"
         style="fill:#bcee87;fill-opacity:1;stroke:none;stroke-width:0.26458332px;stroke-linecap:butt;stroke-linejoin:miter;stroke-opacity:1"
         inkscape:connector-curvature="0" />
      <path
         inkscape:connector-curvature="0"
         transform="scale(0.26458333)"
         id="path4597-4"
         d="m -168.98047,-701.61719 c -0.80333,0.0562 -1.56932,0.59023 -1.89062,1.42188 l -3.07813,7.96875 c -0.42848,1.10906 0.18207,2.39882 1.39258,2.83594 22.64844,8.17836 48.02677,8.55583 70.73047,-0.008 1.2149,-0.45825 1.80677,-1.76074 1.35547,-2.86133 l -3.24024,-7.90234 c -0.45123,-1.10045 -1.6738,-1.65493 -2.69531,-1.26172 -19.50249,7.50713 -41.89383,7.10095 -61.77344,-0.082 -0.26074,-0.0942 -0.533,-0.13006 -0.80078,-0.11133 z m 0.0293,1.32227 c 0.10385,-0.006 0.21051,0.009 0.3164,0.0469 2.04252,0.73796 4.11227,1.40442 6.20118,2 l -2.79688,9.81641 c -2.31464,-0.65879 -4.60635,-1.397 -6.87109,-2.21484 -0.47275,-0.17072 -0.69944,-0.64091 -0.53516,-1.08399 l 2.96875,-8.00781 c 0.12334,-0.33265 0.40525,-0.53869 0.7168,-0.55664 z m 63.33398,0.0664 c 0.31062,0.012 0.59726,0.21307 0.72657,0.54297 l 3.11523,7.94532 c 0.17246,0.43998 -0.0541,0.91492 -0.52734,1.09375 -2.26645,0.85647 -4.55884,1.6225 -6.875,2.29882 l -2.86329,-9.75781 c 2.06268,-0.60819 4.10188,-1.29866 6.11133,-2.07031 0.1041,-0.04 0.20896,-0.0567 0.3125,-0.0527 z m -55.90039,2.23633 c 2.39176,0.65606 4.80971,1.21886 7.24414,1.68555 l -1.91601,10.01953 c -2.69735,-0.51433 -5.3753,-1.13588 -8.02539,-1.86133 z m 48.57031,0.14844 2.75196,9.78711 c -2.65104,0.7422 -5.32934,1.36767 -8.02735,1.87891 l -1.89257,-9.98047 c 2.41382,-0.45799 4.80569,-1.01834 7.16796,-1.68555 z m -40.39062,1.71289 c 2.43868,0.4422 4.89296,0.78824 7.35547,1.03711 L -147,-684.95508 c -2.73059,-0.27198 -5.45016,-0.65356 -8.15234,-1.14062 z m 32.29492,0.14453 1.7832,10 c -2.7028,0.48194 -5.42336,0.84858 -8.15429,1.10352 l -0.93946,-10.11914 c 2.45193,-0.22623 4.89133,-0.5529 7.31055,-0.98438 z m -23.99414,0.98242 c 2.46436,0.22388 4.93496,0.35039 7.4043,0.37696 l -0.0996,10.17578 c -2.74259,-0.0252 -5.48573,-0.16204 -8.21875,-0.40625 z m 15.74219,0.084 0.83203,10.1289 c -2.73332,0.22615 -5.4742,0.34063 -8.2168,0.34375 l -0.006,-10.17382 c 2.46877,10e-4 4.93573,-0.0986 7.39063,-0.29883 z"
         style="fill:#3d1c43;fill-opacity:1;stroke:none;stroke-width:0.99999994px;stroke-linecap:butt;stroke-linejoin:miter;stroke-opacity:1" />
    </g>
  </g>
</svg>
